<svg width="63" height="65" viewBox="0 0 63 65" fill="none" xmlns="http://www.w3.org/2000/svg">
<path fill-rule="evenodd" clip-rule="evenodd" d="M44.3613 9.98281C44.3613 9.2459 43.7752 8.64783 43.0588 8.64783H36.5466C29.3519 8.64783 23.5222 14.0278 23.5222 20.6627V27.8716H17.01C16.291 27.8716 15.7075 28.4696 15.7075 29.2066V36.1485C15.7075 36.8854 16.291 37.4834 17.01 37.4834H23.5222V55.3722C23.5222 56.1091 24.1057 56.7072 24.8246 56.7072H32.6393C33.3556 56.7072 33.9417 56.1091 33.9417 55.3722V37.4834H40.7639C41.35 37.4834 41.8632 37.083 42.0221 36.5062L43.9002 29.5643C44.132 28.7153 43.5069 27.8716 42.6472 27.8716H33.9417V20.6627C33.9417 19.3357 35.1061 18.2597 36.5466 18.2597H43.0588C43.7752 18.2597 44.3613 17.6616 44.3613 16.9247V9.98281Z" fill="#717171"/>
<mask id="mask0_691_601" style="mask-type:luminance" maskUnits="userSpaceOnUse" x="15" y="8" width="30" height="49">
<path fill-rule="evenodd" clip-rule="evenodd" d="M44.3613 9.98281C44.3613 9.2459 43.7752 8.64783 43.0588 8.64783H36.5466C29.3519 8.64783 23.5222 14.0278 23.5222 20.6627V27.8716H17.01C16.291 27.8716 15.7075 28.4696 15.7075 29.2066V36.1485C15.7075 36.8854 16.291 37.4834 17.01 37.4834H23.5222V55.3722C23.5222 56.1091 24.1057 56.7072 24.8246 56.7072H32.6393C33.3556 56.7072 33.9417 56.1091 33.9417 55.3722V37.4834H40.7639C41.35 37.4834 41.8632 37.083 42.0221 36.5062L43.9002 29.5643C44.132 28.7153 43.5069 27.8716 42.6472 27.8716H33.9417V20.6627C33.9417 19.3357 35.1061 18.2597 36.5466 18.2597H43.0588C43.7752 18.2597 44.3613 17.6616 44.3613 16.9247V9.98281Z" fill="white"/>
</mask>
<g mask="url(#mask0_691_601)">
</g>
</svg>
