<svg width="44" height="39" viewBox="0 0 44 39" fill="none" xmlns="http://www.w3.org/2000/svg">
<path d="M5.84198 0.244019C2.6507 0.244019 0.736328 2.10814 0.736328 4.5904C0.736328 7.07266 2.65093 8.92972 5.52197 8.92972C8.71325 8.92972 10.6276 7.07266 10.6276 4.5904C10.6276 2.10814 8.71302 0.244019 5.84198 0.244019ZM0.990884 13.5729V38.9021H10.3876V13.5729H0.990884ZM18.1407 13.5729V38.9021H27.5374V25.0573C27.5374 20.9359 30.5635 20.3434 31.4721 20.3434C32.3807 20.3434 34.8104 21.229 34.8104 25.0573V38.9021H43.9017V25.0573C43.9017 17.1075 40.2663 13.5729 35.7195 13.5729C31.1728 13.5729 28.7476 15.0441 27.5374 17.1066V13.5729H18.1407Z" fill="#717171"/>
</svg>
