<svg width="64" height="65" viewBox="0 0 64 65" fill="none" xmlns="http://www.w3.org/2000/svg">
<path fill-rule="evenodd" clip-rule="evenodd" d="M21.7766 54.0379C40.6516 54.0379 51.5713 39.0167 51.5713 24.7618C51.5713 24.3693 54.2543 22.009 55.403 17.0883C55.6375 16.0897 54.6893 15.3021 53.7958 15.7213C51.5035 16.7999 49.1774 15.9455 48.1667 14.7173C44.2802 10.3733 37.781 10.1651 33.647 14.2501C30.9822 16.8854 29.8517 20.8102 30.6775 24.5562C21.9485 25.1943 15.9547 20.9544 11.0262 15.1419C10.3906 14.3863 9.21061 14.7841 9.07776 15.7827C8.3484 21.3415 8.11917 34.8569 21.1853 42.6185C18.9164 45.9613 14.4751 47.9344 9.53101 48.7808C8.43696 48.9703 8.17647 50.5242 9.17675 51.0262C13.0945 53.002 17.4004 54.0353 21.7766 54.0299" fill="#717171"/>
<mask id="mask0_691_602" style="mask-type:luminance" maskUnits="userSpaceOnUse" x="8" y="11" width="48" height="44">
<path fill-rule="evenodd" clip-rule="evenodd" d="M21.7766 54.0379C40.6516 54.0379 51.5713 39.0167 51.5713 24.7618C51.5713 24.3693 54.2543 22.009 55.403 17.0883C55.6375 16.0897 54.6893 15.3021 53.7958 15.7213C51.5035 16.7999 49.1774 15.9455 48.1667 14.7173C44.2802 10.3733 37.781 10.1651 33.647 14.2501C30.9822 16.8854 29.8517 20.8102 30.6775 24.5562C21.9485 25.1943 15.9547 20.9544 11.0262 15.1419C10.3906 14.3863 9.21061 14.7841 9.07776 15.7827C8.3484 21.3415 8.11917 34.8569 21.1853 42.6185C18.9164 45.9613 14.4751 47.9344 9.53101 48.7808C8.43696 48.9703 8.17647 50.5242 9.17675 51.0262C13.0945 53.002 17.4004 54.0353 21.7766 54.0299" fill="white"/>
</mask>
<g mask="url(#mask0_691_602)">
</g>
</svg>
