<svg xmlns="http://www.w3.org/2000/svg" version="1.1" xmlns:xlink="http://www.w3.org/1999/xlink" xmlns:svgjs="http://svgjs.dev/svgjs" width="1000" height="1000" viewBox="0 0 1000 1000"><rect width="1000" height="1000" fill="#ffffff"></rect><g transform="matrix(0.7,0,0,0.7,149.57575757575756,282.1265587044535)"><svg viewBox="0 0 396 247" data-background-color="#000b78" preserveAspectRatio="xMidYMid meet" height="623" width="1000" xmlns="http://www.w3.org/2000/svg" xmlns:xlink="http://www.w3.org/1999/xlink"><g id="tight-bounds" transform="matrix(1,0,0,1,0.2400000000000091,-0.09999999999999432)"><svg viewBox="0 0 395.52 247.2" height="247.2" width="395.52"><g><svg></svg></g><g><svg viewBox="0 0 395.52 247.2" height="247.2" width="395.52"><g transform="matrix(1,0,0,1,124.58015664335663,47.215199999999996)"><svg viewBox="0 0 146.35968671328672 152.7696" height="152.7696" width="146.35968671328672"><g><svg viewBox="0 0 146.35968671328672 152.7696" height="152.7696" width="146.35968671328672"><g><svg viewBox="0 0 146.35968671328672 152.7696" height="152.7696" width="146.35968671328672"><g><svg viewBox="0 0 146.35968671328672 152.7696" height="152.7696" width="146.35968671328672"><g><svg viewBox="0 0 146.35968671328672 152.7696" height="152.7696" width="146.35968671328672"><g><svg viewBox="0 0 146.35968671328672 152.7696" height="152.7696" width="146.35968671328672"><g transform="matrix(1,0,0,1,0,0)"><svg width="146.35968671328672" viewBox="1.5 -35 34.25 35.75" height="152.7696" data-palette-color="#ffffff"><path d="M30.25 0.75L7-26.5 7-2.25 11-0.75 11 0 1.5 0 1.5-0.75 5.5-2.25 5.5-33.25 2-34.25 2-35 7.25-35Q9.9-35 11.4-34.05 12.9-33.1 14.25-31.5L14.25-31.5 30.25-12.75 30.25-32.75 26.25-34.25 26.25-35 35.75-35 35.75-34.25 31.75-32.75 31.75 0.75 30.25 0.75Z" opacity="1" transform="matrix(1,0,0,1,0,0)" fill="#000000" class="undefined-text-0" data-fill-palette-color="primary" id="text-0"></path></svg></g></svg></g></svg></g></svg></g></svg></g></svg></g></svg></g><path d="M88.639 41.215L88.639 0 335.839 0 335.839 247.2 88.639 247.2 88.639 205.985 102.415 205.985 102.415 233.423 322.062 233.423 322.062 13.777 102.415 13.777 102.415 41.215Z" fill="#000000" stroke="transparent" data-fill-palette-color="primary"></path></svg></g><defs></defs></svg><rect width="395.52" height="247.2" fill="none" stroke="none" visibility="hidden"></rect></g></svg></g></svg>