<svg width="45" height="44" viewBox="0 0 45 44" fill="none" xmlns="http://www.w3.org/2000/svg">
<path d="M12.349 0.108887C5.58228 0.108887 0.0771484 5.45831 0.0771484 12.0336V31.1131C0.0771484 37.6884 5.58228 43.0378 12.349 43.0378H31.9839C38.7505 43.0378 44.2557 37.6884 44.2557 31.1131V12.0336C44.2557 5.45831 38.7505 0.108887 31.9839 0.108887H12.349ZM12.349 4.87877H31.9839C36.0434 4.87877 39.3469 8.08889 39.3469 12.0336V31.1131C39.3469 35.0578 36.0434 38.2679 31.9839 38.2679H12.349C8.28944 38.2679 4.98587 35.0578 4.98587 31.1131V12.0336C4.98587 8.08889 8.28944 4.87877 12.349 4.87877ZM34.4382 7.26371C33.7873 7.26371 33.163 7.51498 32.7027 7.96224C32.2424 8.4095 31.9839 9.01612 31.9839 9.64865C31.9839 10.2812 32.2424 10.8878 32.7027 11.3351C33.163 11.7823 33.7873 12.0336 34.4382 12.0336C35.0892 12.0336 35.7134 11.7823 36.1737 11.3351C36.634 10.8878 36.8926 10.2812 36.8926 9.64865C36.8926 9.01612 36.634 8.4095 36.1737 7.96224C35.7134 7.51498 35.0892 7.26371 34.4382 7.26371ZM22.1664 9.64865C15.3997 9.64865 9.8946 14.9981 9.8946 21.5733C9.8946 28.1486 15.3997 33.498 22.1664 33.498C28.9331 33.498 34.4382 28.1486 34.4382 21.5733C34.4382 14.9981 28.9331 9.64865 22.1664 9.64865ZM22.1664 14.4185C26.2259 14.4185 29.5295 17.6287 29.5295 21.5733C29.5295 25.518 26.2259 28.7282 22.1664 28.7282C18.1069 28.7282 14.8033 25.518 14.8033 21.5733C14.8033 17.6287 18.1069 14.4185 22.1664 14.4185Z" fill="#717171"/>
</svg>
